<mxfile host="Electron" modified="2024-07-18T09:19:24.491Z" agent="Mozilla/5.0 (Macintosh; Intel Mac OS X 10_15_7) AppleWebKit/537.36 (KHTML, like Gecko) draw.io/24.6.4 Chrome/124.0.6367.207 Electron/30.0.6 Safari/537.36" etag="mLXNPXu3wpT_R7K-Uabb" version="24.6.4" type="device">
  <diagram name="Page-1" id="-_7ixsscyCjgbBFooExJ">
    <mxGraphModel dx="1861" dy="1073" grid="1" gridSize="10" guides="1" tooltips="1" connect="1" arrows="1" fold="1" page="0" pageScale="1" pageWidth="827" pageHeight="1169" math="0" shadow="1">
      <root>
        <mxCell id="0" />
        <mxCell id="1" parent="0" />
        <mxCell id="YOo0viPbgiajMBb47PIU-1" value="" style="edgeStyle=orthogonalEdgeStyle;rounded=0;orthogonalLoop=1;jettySize=auto;html=1;" edge="1" parent="1" source="YOo0viPbgiajMBb47PIU-2" target="YOo0viPbgiajMBb47PIU-4">
          <mxGeometry relative="1" as="geometry" />
        </mxCell>
        <mxCell id="YOo0viPbgiajMBb47PIU-2" value="Constructor" style="rounded=1;whiteSpace=wrap;html=1;fontSize=12;glass=0;strokeWidth=1;shadow=0;" vertex="1" parent="1">
          <mxGeometry x="240" y="41" width="200" height="40" as="geometry" />
        </mxCell>
        <mxCell id="YOo0viPbgiajMBb47PIU-26" value="" style="edgeStyle=orthogonalEdgeStyle;rounded=0;orthogonalLoop=1;jettySize=auto;html=1;" edge="1" parent="1" source="YOo0viPbgiajMBb47PIU-4" target="YOo0viPbgiajMBb47PIU-25">
          <mxGeometry relative="1" as="geometry" />
        </mxCell>
        <mxCell id="YOo0viPbgiajMBb47PIU-4" value="InitEvent" style="rounded=1;whiteSpace=wrap;html=1;" vertex="1" parent="1">
          <mxGeometry x="240" y="121" width="200" height="40" as="geometry" />
        </mxCell>
        <mxCell id="YOo0viPbgiajMBb47PIU-5" style="edgeStyle=orthogonalEdgeStyle;rounded=0;orthogonalLoop=1;jettySize=auto;html=1;entryX=0.5;entryY=0;entryDx=0;entryDy=0;" edge="1" parent="1" source="YOo0viPbgiajMBb47PIU-6" target="YOo0viPbgiajMBb47PIU-8">
          <mxGeometry relative="1" as="geometry" />
        </mxCell>
        <mxCell id="YOo0viPbgiajMBb47PIU-6" value="BeforeShowEvent" style="whiteSpace=wrap;html=1;rounded=1;" vertex="1" parent="1">
          <mxGeometry x="240" y="880" width="200" height="40" as="geometry" />
        </mxCell>
        <mxCell id="YOo0viPbgiajMBb47PIU-7" style="edgeStyle=orthogonalEdgeStyle;rounded=0;orthogonalLoop=1;jettySize=auto;html=1;entryX=0.5;entryY=0;entryDx=0;entryDy=0;" edge="1" parent="1" source="YOo0viPbgiajMBb47PIU-8" target="YOo0viPbgiajMBb47PIU-9">
          <mxGeometry relative="1" as="geometry" />
        </mxCell>
        <mxCell id="YOo0viPbgiajMBb47PIU-8" value="AttachEvent" style="whiteSpace=wrap;html=1;rounded=1;" vertex="1" parent="1">
          <mxGeometry x="240" y="960" width="200" height="40" as="geometry" />
        </mxCell>
        <mxCell id="YOo0viPbgiajMBb47PIU-9" value="ReadyEvent" style="whiteSpace=wrap;html=1;rounded=1;" vertex="1" parent="1">
          <mxGeometry x="240" y="1040" width="200" height="40" as="geometry" />
        </mxCell>
        <mxCell id="YOo0viPbgiajMBb47PIU-10" style="edgeStyle=orthogonalEdgeStyle;rounded=0;orthogonalLoop=1;jettySize=auto;html=1;entryX=0.5;entryY=0;entryDx=0;entryDy=0;" edge="1" parent="1" source="YOo0viPbgiajMBb47PIU-11" target="YOo0viPbgiajMBb47PIU-16">
          <mxGeometry relative="1" as="geometry">
            <mxPoint x="680" y="370" as="targetPoint" />
          </mxGeometry>
        </mxCell>
        <mxCell id="YOo0viPbgiajMBb47PIU-11" value="setEntityToEdit&lt;div&gt;&lt;div&gt;(from calling code)&lt;/div&gt;&lt;/div&gt;" style="shape=process;whiteSpace=wrap;html=1;backgroundOutline=1;rounded=1;fillColor=#f5f5f5;strokeColor=#666666;fontColor=#333333;" vertex="1" parent="1">
          <mxGeometry x="540" y="280" width="200" height="40" as="geometry" />
        </mxCell>
        <mxCell id="YOo0viPbgiajMBb47PIU-14" value="" style="edgeStyle=orthogonalEdgeStyle;rounded=0;orthogonalLoop=1;jettySize=auto;html=1;exitX=0;exitY=0.5;exitDx=0;exitDy=0;" edge="1" parent="1" source="YOo0viPbgiajMBb47PIU-16" target="YOo0viPbgiajMBb47PIU-20">
          <mxGeometry relative="1" as="geometry">
            <Array as="points">
              <mxPoint x="460" y="390" />
            </Array>
            <mxPoint x="970" y="460" as="sourcePoint" />
          </mxGeometry>
        </mxCell>
        <mxCell id="YOo0viPbgiajMBb47PIU-15" value="Yes" style="edgeLabel;html=1;align=center;verticalAlign=middle;resizable=0;points=[];rotation=0;" vertex="1" connectable="0" parent="YOo0viPbgiajMBb47PIU-14">
          <mxGeometry x="-0.2125" y="2" relative="1" as="geometry">
            <mxPoint x="17" y="-2" as="offset" />
          </mxGeometry>
        </mxCell>
        <mxCell id="YOo0viPbgiajMBb47PIU-81" style="edgeStyle=orthogonalEdgeStyle;rounded=0;orthogonalLoop=1;jettySize=auto;html=1;exitX=0.5;exitY=1;exitDx=0;exitDy=0;" edge="1" parent="1" source="YOo0viPbgiajMBb47PIU-16" target="YOo0viPbgiajMBb47PIU-18">
          <mxGeometry relative="1" as="geometry" />
        </mxCell>
        <mxCell id="YOo0viPbgiajMBb47PIU-82" value="No" style="edgeLabel;html=1;align=center;verticalAlign=middle;resizable=0;points=[];" vertex="1" connectable="0" parent="YOo0viPbgiajMBb47PIU-81">
          <mxGeometry x="-0.3067" y="2" relative="1" as="geometry">
            <mxPoint x="-2" y="-2" as="offset" />
          </mxGeometry>
        </mxCell>
        <mxCell id="YOo0viPbgiajMBb47PIU-16" value="New entity or do not reload?" style="rhombus;whiteSpace=wrap;html=1;rounded=1;" vertex="1" parent="1">
          <mxGeometry x="520" y="360" width="240" height="60" as="geometry" />
        </mxCell>
        <mxCell id="YOo0viPbgiajMBb47PIU-86" style="edgeStyle=orthogonalEdgeStyle;rounded=0;orthogonalLoop=1;jettySize=auto;html=1;entryX=0.5;entryY=0;entryDx=0;entryDy=0;exitX=0.5;exitY=1;exitDx=0;exitDy=0;" edge="1" parent="1" source="YOo0viPbgiajMBb47PIU-18" target="YOo0viPbgiajMBb47PIU-6">
          <mxGeometry relative="1" as="geometry">
            <Array as="points">
              <mxPoint x="640" y="840" />
              <mxPoint x="340" y="840" />
            </Array>
          </mxGeometry>
        </mxCell>
        <mxCell id="YOo0viPbgiajMBb47PIU-18" value="Set &lt;b&gt;entity Id&lt;/b&gt; to&amp;nbsp;EditedEntityLoader" style="shape=process;whiteSpace=wrap;html=1;backgroundOutline=1;rounded=1;fillColor=#f5f5f5;strokeColor=#666666;fontColor=#333333;" vertex="1" parent="1">
          <mxGeometry x="540" y="680" width="200" height="40" as="geometry" />
        </mxCell>
        <mxCell id="YOo0viPbgiajMBb47PIU-19" value="" style="edgeStyle=orthogonalEdgeStyle;rounded=0;orthogonalLoop=1;jettySize=auto;html=1;entryX=0.5;entryY=0;entryDx=0;entryDy=0;exitX=0.5;exitY=1;exitDx=0;exitDy=0;" edge="1" parent="1" source="YOo0viPbgiajMBb47PIU-20" target="YOo0viPbgiajMBb47PIU-22">
          <mxGeometry relative="1" as="geometry">
            <Array as="points">
              <mxPoint x="460" y="620" />
              <mxPoint x="340" y="620" />
            </Array>
          </mxGeometry>
        </mxCell>
        <mxCell id="YOo0viPbgiajMBb47PIU-20" value="Merge to DataContext" style="shape=process;whiteSpace=wrap;html=1;backgroundOutline=1;rounded=1;fillColor=#f5f5f5;fontColor=#333333;strokeColor=#666666;" vertex="1" parent="1">
          <mxGeometry x="360" y="440" width="200" height="40" as="geometry" />
        </mxCell>
        <mxCell id="YOo0viPbgiajMBb47PIU-21" value="" style="edgeStyle=orthogonalEdgeStyle;rounded=0;orthogonalLoop=1;jettySize=auto;html=1;" edge="1" parent="1" source="YOo0viPbgiajMBb47PIU-22" target="YOo0viPbgiajMBb47PIU-24">
          <mxGeometry relative="1" as="geometry" />
        </mxCell>
        <mxCell id="YOo0viPbgiajMBb47PIU-22" value="InitEntityEvent" style="whiteSpace=wrap;html=1;rounded=1;" vertex="1" parent="1">
          <mxGeometry x="240" y="680" width="200" height="40" as="geometry" />
        </mxCell>
        <mxCell id="YOo0viPbgiajMBb47PIU-84" style="edgeStyle=orthogonalEdgeStyle;rounded=0;orthogonalLoop=1;jettySize=auto;html=1;entryX=0.5;entryY=0;entryDx=0;entryDy=0;" edge="1" parent="1" source="YOo0viPbgiajMBb47PIU-24" target="YOo0viPbgiajMBb47PIU-6">
          <mxGeometry relative="1" as="geometry" />
        </mxCell>
        <mxCell id="YOo0viPbgiajMBb47PIU-24" value="Set to&amp;nbsp;&lt;b&gt;InstanceContainer&lt;/b&gt;" style="shape=process;whiteSpace=wrap;html=1;backgroundOutline=1;rounded=1;fillColor=#f5f5f5;strokeColor=#666666;fontColor=#333333;" vertex="1" parent="1">
          <mxGeometry x="240" y="760" width="200" height="40" as="geometry" />
        </mxCell>
        <mxCell id="YOo0viPbgiajMBb47PIU-27" style="edgeStyle=orthogonalEdgeStyle;rounded=0;orthogonalLoop=1;jettySize=auto;html=1;entryX=0.5;entryY=0;entryDx=0;entryDy=0;" edge="1" parent="1" source="YOo0viPbgiajMBb47PIU-25" target="YOo0viPbgiajMBb47PIU-61">
          <mxGeometry relative="1" as="geometry">
            <mxPoint x="80" y="280" as="targetPoint" />
          </mxGeometry>
        </mxCell>
        <mxCell id="YOo0viPbgiajMBb47PIU-78" value="Navigation" style="edgeLabel;html=1;align=center;verticalAlign=middle;resizable=0;points=[];" vertex="1" connectable="0" parent="YOo0viPbgiajMBb47PIU-27">
          <mxGeometry x="-0.0864" relative="1" as="geometry">
            <mxPoint as="offset" />
          </mxGeometry>
        </mxCell>
        <mxCell id="YOo0viPbgiajMBb47PIU-28" style="edgeStyle=orthogonalEdgeStyle;rounded=0;orthogonalLoop=1;jettySize=auto;html=1;entryX=0.5;entryY=0;entryDx=0;entryDy=0;" edge="1" parent="1" source="YOo0viPbgiajMBb47PIU-25" target="YOo0viPbgiajMBb47PIU-11">
          <mxGeometry relative="1" as="geometry" />
        </mxCell>
        <mxCell id="YOo0viPbgiajMBb47PIU-79" value="Dialog" style="edgeLabel;html=1;align=center;verticalAlign=middle;resizable=0;points=[];" vertex="1" connectable="0" parent="YOo0viPbgiajMBb47PIU-28">
          <mxGeometry x="-0.1261" relative="1" as="geometry">
            <mxPoint as="offset" />
          </mxGeometry>
        </mxCell>
        <mxCell id="YOo0viPbgiajMBb47PIU-25" value="" style="rhombus;whiteSpace=wrap;html=1;rounded=1;" vertex="1" parent="1">
          <mxGeometry x="320" y="200" width="40" height="40" as="geometry" />
        </mxCell>
        <mxCell id="YOo0viPbgiajMBb47PIU-53" value="" style="edgeStyle=orthogonalEdgeStyle;rounded=0;orthogonalLoop=1;jettySize=auto;html=1;" edge="1" parent="1" source="YOo0viPbgiajMBb47PIU-54" target="YOo0viPbgiajMBb47PIU-63">
          <mxGeometry relative="1" as="geometry" />
        </mxCell>
        <mxCell id="YOo0viPbgiajMBb47PIU-54" value="QueryParametersChangeEvent" style="whiteSpace=wrap;html=1;rounded=1;" vertex="1" parent="1">
          <mxGeometry x="-40" y="360" width="200" height="40" as="geometry" />
        </mxCell>
        <mxCell id="YOo0viPbgiajMBb47PIU-60" style="edgeStyle=orthogonalEdgeStyle;rounded=0;orthogonalLoop=1;jettySize=auto;html=1;entryX=0.5;entryY=0;entryDx=0;entryDy=0;" edge="1" parent="1" source="YOo0viPbgiajMBb47PIU-61" target="YOo0viPbgiajMBb47PIU-54">
          <mxGeometry relative="1" as="geometry" />
        </mxCell>
        <mxCell id="YOo0viPbgiajMBb47PIU-61" value="findEntityId" style="shape=process;whiteSpace=wrap;html=1;backgroundOutline=1;rounded=1;fillColor=#f5f5f5;strokeColor=#666666;fontColor=#333333;" vertex="1" parent="1">
          <mxGeometry x="-40" y="280" width="200" height="40" as="geometry" />
        </mxCell>
        <mxCell id="YOo0viPbgiajMBb47PIU-62" value="" style="edgeStyle=orthogonalEdgeStyle;rounded=0;orthogonalLoop=1;jettySize=auto;html=1;" edge="1" parent="1" source="YOo0viPbgiajMBb47PIU-63" target="YOo0viPbgiajMBb47PIU-68">
          <mxGeometry relative="1" as="geometry" />
        </mxCell>
        <mxCell id="YOo0viPbgiajMBb47PIU-63" value="setupEntityToEdit" style="shape=process;whiteSpace=wrap;html=1;backgroundOutline=1;rounded=1;fillColor=#f5f5f5;strokeColor=#666666;fontColor=#333333;" vertex="1" parent="1">
          <mxGeometry x="-40" y="440" width="200" height="40" as="geometry" />
        </mxCell>
        <mxCell id="YOo0viPbgiajMBb47PIU-64" value="" style="edgeStyle=orthogonalEdgeStyle;rounded=0;orthogonalLoop=1;jettySize=auto;html=1;exitX=0.5;exitY=1;exitDx=0;exitDy=0;entryX=0.5;entryY=0;entryDx=0;entryDy=0;" edge="1" parent="1" source="YOo0viPbgiajMBb47PIU-68" target="YOo0viPbgiajMBb47PIU-70">
          <mxGeometry relative="1" as="geometry">
            <Array as="points">
              <mxPoint x="60" y="630" />
              <mxPoint x="60" y="630" />
            </Array>
          </mxGeometry>
        </mxCell>
        <mxCell id="YOo0viPbgiajMBb47PIU-65" value="No" style="edgeLabel;html=1;align=center;verticalAlign=middle;resizable=0;points=[];" vertex="1" connectable="0" parent="YOo0viPbgiajMBb47PIU-64">
          <mxGeometry x="-0.4375" y="-2" relative="1" as="geometry">
            <mxPoint x="2" y="16" as="offset" />
          </mxGeometry>
        </mxCell>
        <mxCell id="YOo0viPbgiajMBb47PIU-66" value="" style="edgeStyle=orthogonalEdgeStyle;rounded=0;orthogonalLoop=1;jettySize=auto;html=1;" edge="1" parent="1" source="YOo0viPbgiajMBb47PIU-68" target="YOo0viPbgiajMBb47PIU-72">
          <mxGeometry relative="1" as="geometry">
            <Array as="points">
              <mxPoint x="220" y="540" />
            </Array>
          </mxGeometry>
        </mxCell>
        <mxCell id="YOo0viPbgiajMBb47PIU-67" value="Yes" style="edgeLabel;html=1;align=center;verticalAlign=middle;resizable=0;points=[];rotation=0;" vertex="1" connectable="0" parent="YOo0viPbgiajMBb47PIU-66">
          <mxGeometry x="-0.2125" y="2" relative="1" as="geometry">
            <mxPoint x="-13" y="2" as="offset" />
          </mxGeometry>
        </mxCell>
        <mxCell id="YOo0viPbgiajMBb47PIU-68" value="New entity Id?" style="rhombus;whiteSpace=wrap;html=1;rounded=1;" vertex="1" parent="1">
          <mxGeometry x="-40" y="520" width="200" height="40" as="geometry" />
        </mxCell>
        <mxCell id="YOo0viPbgiajMBb47PIU-85" style="edgeStyle=orthogonalEdgeStyle;rounded=0;orthogonalLoop=1;jettySize=auto;html=1;exitX=0.5;exitY=1;exitDx=0;exitDy=0;entryX=0.5;entryY=0;entryDx=0;entryDy=0;" edge="1" parent="1" source="YOo0viPbgiajMBb47PIU-70" target="YOo0viPbgiajMBb47PIU-6">
          <mxGeometry relative="1" as="geometry">
            <Array as="points">
              <mxPoint x="60" y="840" />
              <mxPoint x="340" y="840" />
            </Array>
          </mxGeometry>
        </mxCell>
        <mxCell id="YOo0viPbgiajMBb47PIU-70" value="Set&amp;nbsp;&lt;b&gt;entity Id&lt;/b&gt;&amp;nbsp;to&amp;nbsp;EditedEntityLoader" style="shape=process;whiteSpace=wrap;html=1;backgroundOutline=1;rounded=1;fillColor=#f5f5f5;strokeColor=#666666;fontColor=#333333;" vertex="1" parent="1">
          <mxGeometry x="-40" y="680" width="200" height="40" as="geometry" />
        </mxCell>
        <mxCell id="YOo0viPbgiajMBb47PIU-83" style="edgeStyle=orthogonalEdgeStyle;rounded=0;orthogonalLoop=1;jettySize=auto;html=1;entryX=0.5;entryY=0;entryDx=0;entryDy=0;exitX=1;exitY=0.5;exitDx=0;exitDy=0;" edge="1" parent="1" source="YOo0viPbgiajMBb47PIU-72" target="YOo0viPbgiajMBb47PIU-22">
          <mxGeometry relative="1" as="geometry" />
        </mxCell>
        <mxCell id="YOo0viPbgiajMBb47PIU-72" value="initNewEntity" style="shape=process;whiteSpace=wrap;html=1;backgroundOutline=1;rounded=1;fillColor=#f5f5f5;strokeColor=#666666;fontColor=#333333;" vertex="1" parent="1">
          <mxGeometry x="120" y="600" width="200" height="40" as="geometry" />
        </mxCell>
      </root>
    </mxGraphModel>
  </diagram>
</mxfile>
